<?xml version="1.0" standalone="no"?>
<!DOCTYPE svg PUBLIC "-//W3C//DTD SVG 20010904//EN"
 "http://www.w3.org/TR/2001/REC-SVG-20010904/DTD/svg10.dtd">
<svg version="1.0" xmlns="http://www.w3.org/2000/svg"
 width="557.000000pt" height="557.000000pt" viewBox="0 0 557.000000 557.000000"
 preserveAspectRatio="xMidYMid meet">
<metadata>
Created by potrace 1.11, written by Peter Selinger 2001-2013
</metadata>
<g transform="translate(0.000000,557.000000) scale(0.100000,-0.100000)"
fill="#000000" stroke="none">
<path d="M2315 5430 c-22 -4 -62 -11 -90 -15 -27 -3 -70 -11 -95 -16 -25 -6
-52 -12 -60 -14 -86 -19 -128 -31 -222 -61 -633 -205 -1160 -633 -1497 -1218
-49 -84 -66 -119 -132 -263 -76 -168 -159 -454 -185 -633 -3 -25 -8 -56 -10
-70 -19 -108 -26 -494 -11 -615 11 -98 17 -139 22 -165 3 -14 7 -43 11 -65 3
-22 19 -94 36 -160 220 -874 866 -1576 1720 -1871 107 -37 217 -67 323 -89 39
-8 84 -17 100 -20 69 -15 233 -17 271 -5 131 43 201 181 158 314 -15 48 -87
122 -1150 1186 l-1134 1135 1125 1125 c822 822 1131 1137 1147 1169 29 60 31
161 4 215 -25 50 -73 97 -122 121 -42 20 -142 27 -209 15z"/>
<path d="M3077 5426 c-55 -20 -103 -61 -134 -114 -24 -40 -28 -58 -28 -122 0
-58 5 -84 22 -115 13 -24 484 -502 1147 -1164 l1124 -1125 -1127 -1127 c-695
-695 -1136 -1143 -1147 -1166 -25 -50 -25 -174 -1 -220 25 -48 84 -100 133
-119 66 -25 233 -14 409 26 443 102 815 285 1152 566 67 56 269 256 308 304
11 14 39 48 61 75 56 68 185 257 229 336 62 111 141 280 179 382 37 98 99 305
109 362 3 17 8 41 11 55 4 14 10 52 16 85 5 33 12 80 17 105 10 58 10 588 0
660 -50 355 -141 643 -293 929 -72 134 -127 220 -233 361 -98 131 -326 366
-451 465 -47 37 -92 72 -100 79 -27 21 -184 122 -247 159 -236 137 -578 262
-838 306 -114 19 -130 21 -205 26 -51 4 -87 1 -113 -9z"/>
</g>
</svg>
